#!OML:ASF X:\für Bonn\!DataBase\2005_08_10_Bjorn_Final\c3d\bjorn.ASF
:FULLY-SPECIFIED
:DEGREES
535
root 0.166845 1.74877 19.818 -276.384 -5.91639 -526.158
lowerback 35.8059 8.92759 5.13609
upperback 26.9231 3.80341 2.06846
thorax 12.661 -2.40571 -2.26028
lowerneck 13.7794 6.78197 7.36559
upperneck 16.2519 7.3845 2.51242
head 3.22664 3.12436 -0.545136
rclavicle -1.90833e-014 -4.45278e-014
rhumerus 7.93769 -5.42083 -67.7958
rradius 28.1738
rwrist 17.0302
rhand 4.60857 8.75933
rfingers 7.12502
rthumb 29.9966 -18.8286
lclavicle -1.90833e-014 -4.45278e-014
lhumerus 10.4605 -7.16849 82.3704
lradius 32.9322
lwrist -26.5899
lhand -41.6206 -377.401
lfingers 7.12502
lthumb -14.5296 12.0697
rfemur -25.0722 -11.7558 4.62702
rtibia 71.5857
rfoot 32.4029 2.37602
rtoes -4.54287
lfemur -52.4902 6.18546 -4.14306
ltibia 118.95
lfoot 26.6306 -1.81342
ltoes 7.7919
536
root 0.166602 1.74348 19.8452 -276.984 -5.80797 -526.062
lowerback 35.4385 8.92978 4.96709
upperback 26.8927 3.86661 1.99264
thorax 12.7374 -2.34599 -2.25854
lowerneck 13.7829 6.65259 7.21015
upperneck 16.4852 7.11979 2.72798
head 3.28446 2.97135 -0.44492
rclavicle -7.95139e-015 1.17681e-013
rhumerus 7.52677 -5.53559 -67.8578
rradius 27.9901
rwrist 17.0461
rhand 4.91979 8.40501
rfingers 7.12502
rthumb 30.2935 -19.1287
lclavicle -7.95139e-015 1.17681e-013
lhumerus 10.0748 -7.20685 82.3836
lradius 32.8009
lwrist -27.299
lhand -42.313 -377.132
lfingers 7.12502
lthumb -15.1967 12.2902
rfemur -23.5325 -11.5403 4.76688
rtibia 69.5895
rfoot 32.0678 2.27685
rtoes -4.88516
lfemur -51.7149 5.89517 -4.05739
ltibia 118.676
lfoot 26.5868 -1.79964
ltoes 7.58407
537
root 0.166039 1.7371 19.8703 -277.582 -5.71331 -525.967
lowerback 35.0658 8.91257 4.76848
upperback 26.8465 3.90669 1.91129
thorax 12.7928 -2.29786 -2.24037
lowerneck 13.9024 6.53869 6.89929
upperneck 16.5601 6.88869 2.94825
head 3.25952 2.8271 -0.323261
rclavicle -4.29375e-014 -5.40694e-014
rhumerus 7.16075 -5.63066 -67.9137
rradius 27.7874
rwrist 17.0529
rhand 5.18722 7.93574
rfingers 7.12502
rthumb 30.5485 -19.5508
lclavicle -4.29375e-014 -5.40694e-014
lhumerus 9.74408 -7.17662 82.4088
lradius 32.5179
lwrist -28.1041
lhand -43.0319 -376.953
lfingers 7.12502
lthumb -15.8891 12.4155
rfemur -21.9916 -11.3506 4.88132
rtibia 67.5769
rfoot 31.7153 2.21136
rtoes -5.26631
lfemur -50.9596 5.59995 -3.98051
ltibia 118.419
lfoot 26.5578 -1.67493
ltoes 7.86567
538
root 0.166225 1.73069 19.8974 -278.147 -5.59775 -525.867
lowerback 34.6419 8.87271 4.60833
upperback 26.7863 3.94166 1.79785
thorax 12.8581 -2.23443 -2.27302
lowerneck 13.9638 6.44593 6.68467
upperneck 16.7329 6.67923 3.13582
head 3.28816 2.69671 -0.225152
rclavicle -3.18055e-015 -4.77083e-014
rhumerus 6.81226 -5.85345 -68.024
rradius 27.5073
rwrist 17.1605
rhand 5.33917 7.56523
rfingers 7.12502
rthumb 30.6934 -19.8942
lclavicle -3.18055e-015 -4.77083e-014
lhumerus 9.51041 -7.325 82.3026
lradius 32.1051
lwrist -28.8041
lhand -43.7753 -376.774
lfingers 7.12502
lthumb -16.6049 12.5361
rfemur -20.4903 -11.1655 5.03007
rtibia 65.5528
rfoot 31.3826 2.12084
rtoes -5.25323
lfemur -50.2539 5.33435 -3.88986
ltibia 118.157
lfoot 26.5611 -1.64175
ltoes 7.8001
539
root 0.166419 1.72436 19.9245 -278.721 -5.48017 -525.79
lowerback 34.2353 8.83481 4.45062
upperback 26.6966 3.99194 1.66337
thorax 12.8844 -2.15575 -2.32925
lowerneck 14.0765 6.34836 6.56589
upperneck 16.9277 6.46999 3.28091
head 3.32434 2.56686 -0.157519
rclavicle -1.27222e-014 4.45278e-014
rhumerus 6.40263 -6.10925 -68.138
rradius 27.2286
rwrist 17.3058
rhand 5.38966 7.24743
rfingers 7.12502
rthumb 30.7416 -20.203
lclavicle -1.27222e-014 4.45278e-014
lhumerus 9.33562 -7.57385 82.1148
lradius 31.5351
lwrist -29.494
lhand -44.5516 -376.585
lfingers 7.12502
lthumb -17.3521 12.6606
rfemur -18.9837 -10.9897 5.17863
rtibia 63.5232
rfoot 31.0407 2.16155
rtoes -5.34009
lfemur -49.5125 5.10533 -3.78356
ltibia 117.891
lfoot 26.5342 -1.64136
ltoes 7.75344
540
root 0.166815 1.71708 19.9526 -279.273 -5.34512 -525.716
lowerback 33.796 8.7932 4.29597
upperback 26.5859 4.05203 1.53248
thorax 12.8991 -2.06476 -2.38124
lowerneck 14.1867 6.25276 6.4933
upperneck 17.1743 6.26138 3.38267
head 3.38473 2.43687 -0.110723
rclavicle 2.8625e-014 3.18055e-014
rhumerus 5.99105 -6.26936 -68.1714
rradius 26.9289
rwrist 17.2483
rhand 5.31149 6.99541
rfingers 7.12502
rthumb 30.667 -20.469
lclavicle 2.8625e-014 3.18055e-014
lhumerus 9.27086 -7.85483 81.919
lradius 30.7433
lwrist -30.2389
lhand -45.2655 -376.429
lfingers 7.12502
lthumb -18.0391 12.7543
rfemur -17.5088 -10.814 5.35187
rtibia 61.479
rfoot 30.7005 2.22522
rtoes -5.31462
lfemur -48.8111 4.89061 -3.65695
ltibia 117.63
lfoot 26.529 -1.62719
ltoes 7.71991
541
root 0.16745 1.71005 19.9804 -279.837 -5.18008 -525.675
lowerback 33.3596 8.7487 4.1566
upperback 26.454 4.11954 1.39529
thorax 12.8913 -1.96425 -2.44673
lowerneck 14.3208 6.17057 6.47163
upperneck 17.4692 6.0692 3.4337
head 3.46449 2.31293 -0.0889817
rclavicle 7.95139e-014 -3.49861e-014
rhumerus 5.55535 -6.42202 -68.175
rradius 26.6276
rwrist 17.1896
rhand 5.11168 6.89049
rfingers 7.12502
rthumb 30.4765 -20.6094
lclavicle 7.95139e-014 -3.49861e-014
lhumerus 9.31407 -8.14749 81.7141
lradius 29.7369
lwrist -30.9863
lhand -45.8368 -376.084
lfingers 7.12502
lthumb -18.5887 13.0476
rfemur -16.0079 -10.6011 5.56156
rtibia 59.3967
rfoot 30.399 2.20361
rtoes -4.92863
lfemur -48.0886 4.74418 -3.47517
ltibia 117.379
lfoot 26.5203 -1.69301
ltoes 7.57871
542
root 0.168702 1.70309 20.0108 -280.426 -5.00006 -525.66
lowerback 32.9337 8.72563 4.00667
upperback 26.3376 4.2009 1.27402
thorax 12.9 -1.86718 -2.49352
lowerneck 14.374 6.08581 6.47232
upperneck 17.8329 5.86809 3.43623
head 3.58641 2.1859 -0.0841474
rclavicle -4.92986e-014 -2.54444e-014
rhumerus 5.22995 -6.66049 -68.1847
rradius 26.2422
rwrist 17.1928
rhand 4.86958 6.93397
rfingers 7.12502
rthumb 30.2456 -20.6086
lclavicle -4.92986e-014 -2.54444e-014
lhumerus 9.53762 -8.37928 81.512
lradius 28.5213
lwrist -31.7231
lhand -46.1378 -375.846
lfingers 7.12502
lthumb -18.8782 13.2577
rfemur -14.4628 -10.3768 5.7987
rtibia 57.2711
rfoot 30.0232 2.30892
rtoes -5.1988
lfemur -47.311 4.60756 -3.25841
ltibia 117.11
lfoot 26.5121 -1.72096
ltoes 7.70731
